<?xml version="1.0"?>
<svg width="400" height="400" xmlns="http://www.w3.org/2000/svg" xmlns:svg="http://www.w3.org/2000/svg" xmlns:xlink="http://www.w3.org/1999/xlink">
 <title>Shakely Consulting Logo</title>
 <defs>
  <symbol id="svg_2" viewBox="0 0 24 24" xmlns="http://www.w3.org/2000/svg">
   <title>Scrutinizer CI icon</title>
   <path d="m14.86,0l-7.983,0.06a6.139,6.127 0 0 0 -3.744,2.508a6.36,6.36 0 0 0 -1.357,2.64l-0.12,0.553l-0.119,0.857c-0.06,0.799 -0.06,1.351 0.12,1.471l5.275,0c0.06,0 -0.186,-0.246 -0.186,-0.672c0,-0.738 0.252,-0.924 0.552,-1.23c0.552,-0.426 2.945,-0.12 4.728,-0.246c2.448,0 4.602,-0.06 4.848,-0.12c2.7,-0.427 5.03,-2.388 5.522,-4.536c0.12,-0.547 0.12,-1.105 0.06,-1.165c-0.06,-0.12 -1.039,-0.12 -7.598,-0.12l0.002,0zm-5.668,9.007c-3.758,-0.015 -7.47,0 -7.53,0.06c-0.126,0.126 -0.06,0.798 0.06,1.35a5.64,5.64 0 0 0 1.843,2.761a7.549,7.549 0 0 0 3.312,1.59c0.366,0.126 1.044,0.126 4.597,0.126c4.236,0 4.915,0.06 5.22,0.24a1.842,1.836 0 0 1 0.372,0.372c0.18,0.24 0.181,0.307 0.181,0.979c0,0.672 -0.066,0.732 -0.186,1.044a1.47,1.47 0 0 1 -0.426,0.366c-0.186,0.12 -0.307,0.119 -4.357,0.179c-4.67,0 -5.155,0 -6.319,0.432a6.445,6.433 0 0 0 -2.46,1.35c-1.164,1.039 -1.842,2.203 -1.962,3.428l0.06,0.611a283.022,282.613 0 0 0 15.404,0l0.492,-0.12a4.543,4.537 0 0 0 0.737,-0.245l0.367,-0.18a7.735,7.723 0 0 0 3.499,-4.297a8.407,8.395 0 0 0 -0.373,-6.061a8.527,8.521 0 0 0 -2.328,-2.88a6.937,6.925 0 0 0 -2.394,-0.984c-0.246,-0.06 -4.051,-0.106 -7.81,-0.121l0.001,0z" id="svg_5"/>
  </symbol>
 </defs>
 <g class="layer">
  <title>Layer 1</title>
  <path d="m290.796112,398.975072l-107.054241,-57.555069l0,-115.0526l107.085135,-57.497548l107.095439,57.497548l-60.738233,32.646181l-46.357206,-24.947235l-46.398405,24.928061l0,49.856122l46.377814,24.928061l46.357206,-24.928061l60.727929,32.569469l-107.033632,57.555069l-0.061807,0l0.000001,0.000002z" fill="#000000" id="svg_1"/>
  <use id="svg_3" transform="matrix(0.618509 0 0 0.589647 -106.512 -59.2121)" x="150.707619" xlink:href="#svg_2" y="101.33743"/>
  <g id="svg_4"/>
 </g>
</svg>